<mxfile host="app.diagrams.net" agent="Mozilla/5.0 (X11; Linux x86_64) AppleWebKit/537.36 (KHTML, like Gecko) Chrome/128.0.0.0 Safari/537.36" version="24.7.17">
  <diagram id="C5RBs43oDa-KdzZeNtuy" name="Page-1">
    <mxGraphModel dx="1195" dy="1797" grid="1" gridSize="10" guides="1" tooltips="1" connect="1" arrows="1" fold="1" page="1" pageScale="1" pageWidth="827" pageHeight="1169" math="0" shadow="0">
      <root>
        <mxCell id="WIyWlLk6GJQsqaUBKTNV-0" />
        <mxCell id="WIyWlLk6GJQsqaUBKTNV-1" parent="WIyWlLk6GJQsqaUBKTNV-0" />
        <mxCell id="zlRkOM_I-QWPaKwqosRQ-27" value="" style="rounded=0;whiteSpace=wrap;html=1;fontSize=13;" vertex="1" parent="WIyWlLk6GJQsqaUBKTNV-1">
          <mxGeometry x="75" y="-315" width="880" height="460" as="geometry" />
        </mxCell>
        <mxCell id="zlRkOM_I-QWPaKwqosRQ-30" style="edgeStyle=orthogonalEdgeStyle;rounded=0;orthogonalLoop=1;jettySize=auto;html=1;exitX=0.5;exitY=1;exitDx=0;exitDy=0;fontSize=13;" edge="1" parent="WIyWlLk6GJQsqaUBKTNV-1" source="zlRkOM_I-QWPaKwqosRQ-0" target="zlRkOM_I-QWPaKwqosRQ-9">
          <mxGeometry relative="1" as="geometry" />
        </mxCell>
        <mxCell id="zlRkOM_I-QWPaKwqosRQ-0" value="SecurityContextPersistenceFilter" style="rounded=0;whiteSpace=wrap;html=1;fontSize=13;align=center;verticalAlign=middle;flipH=1;fillColor=#fa6800;fontColor=#000000;strokeColor=#C73500;" vertex="1" parent="WIyWlLk6GJQsqaUBKTNV-1">
          <mxGeometry x="120" y="-195" width="230" height="50" as="geometry" />
        </mxCell>
        <mxCell id="zlRkOM_I-QWPaKwqosRQ-29" style="edgeStyle=orthogonalEdgeStyle;rounded=0;orthogonalLoop=1;jettySize=auto;html=1;exitX=0.5;exitY=1;exitDx=0;exitDy=0;entryX=0.5;entryY=0;entryDx=0;entryDy=0;fontSize=13;" edge="1" parent="WIyWlLk6GJQsqaUBKTNV-1" source="zlRkOM_I-QWPaKwqosRQ-4" target="zlRkOM_I-QWPaKwqosRQ-0">
          <mxGeometry relative="1" as="geometry" />
        </mxCell>
        <mxCell id="zlRkOM_I-QWPaKwqosRQ-4" value="WebAsyncManagerIntegrationFilter" style="rounded=0;whiteSpace=wrap;html=1;align=center;verticalAlign=middle;flipH=1;fillColor=#fa6800;fontColor=#000000;strokeColor=#C73500;fontSize=13;" vertex="1" parent="WIyWlLk6GJQsqaUBKTNV-1">
          <mxGeometry x="120" y="-280" width="230" height="50" as="geometry" />
        </mxCell>
        <mxCell id="zlRkOM_I-QWPaKwqosRQ-6" value="Saml2WebSsoAuthenticationFilter" style="rounded=0;whiteSpace=wrap;html=1;fontSize=13;" vertex="1" parent="WIyWlLk6GJQsqaUBKTNV-1">
          <mxGeometry x="827" y="420" width="230" height="50" as="geometry" />
        </mxCell>
        <mxCell id="zlRkOM_I-QWPaKwqosRQ-7" value="Oauth2AuthorizationRequestRedirectFilter" style="rounded=0;whiteSpace=wrap;html=1;fontSize=13;" vertex="1" parent="WIyWlLk6GJQsqaUBKTNV-1">
          <mxGeometry x="827" y="320" width="230" height="50" as="geometry" />
        </mxCell>
        <mxCell id="zlRkOM_I-QWPaKwqosRQ-39" style="edgeStyle=orthogonalEdgeStyle;rounded=0;orthogonalLoop=1;jettySize=auto;html=1;exitX=1;exitY=0.5;exitDx=0;exitDy=0;entryX=0;entryY=0.5;entryDx=0;entryDy=0;fontSize=13;" edge="1" parent="WIyWlLk6GJQsqaUBKTNV-1" source="zlRkOM_I-QWPaKwqosRQ-14" target="zlRkOM_I-QWPaKwqosRQ-15">
          <mxGeometry relative="1" as="geometry" />
        </mxCell>
        <mxCell id="zlRkOM_I-QWPaKwqosRQ-14" value="RequestCacheAwareFilter" style="rounded=0;whiteSpace=wrap;html=1;fontSize=13;fillColor=#fa6800;fontColor=#000000;strokeColor=#C73500;" vertex="1" parent="WIyWlLk6GJQsqaUBKTNV-1">
          <mxGeometry x="400" y="60" width="230" height="50" as="geometry" />
        </mxCell>
        <mxCell id="zlRkOM_I-QWPaKwqosRQ-19" value="FilterSecurityInterceptor" style="rounded=0;whiteSpace=wrap;html=1;fontSize=13;fillColor=#fa6800;fontColor=#000000;strokeColor=#C73500;" vertex="1" parent="WIyWlLk6GJQsqaUBKTNV-1">
          <mxGeometry x="690" y="60" width="230" height="50" as="geometry" />
        </mxCell>
        <mxCell id="zlRkOM_I-QWPaKwqosRQ-20" value="&lt;span style=&quot;font-size: 12px; text-wrap: nowrap;&quot;&gt;ConcurrentSessionFilter&lt;/span&gt;" style="rounded=0;whiteSpace=wrap;html=1;fontSize=13;" vertex="1" parent="WIyWlLk6GJQsqaUBKTNV-1">
          <mxGeometry x="827" y="510" width="230" height="50" as="geometry" />
        </mxCell>
        <mxCell id="zlRkOM_I-QWPaKwqosRQ-21" value="&lt;span style=&quot;color: rgb(0, 0, 0); font-family: Helvetica; font-size: 12px; font-style: normal; font-variant-ligatures: normal; font-variant-caps: normal; font-weight: 400; letter-spacing: normal; orphans: 2; text-align: left; text-indent: 0px; text-transform: none; widows: 2; word-spacing: 0px; -webkit-text-stroke-width: 0px; white-space: normal; background-color: rgb(251, 251, 251); text-decoration-thickness: initial; text-decoration-style: initial; text-decoration-color: initial; display: inline !important; float: none;&quot;&gt;BearerTokenAuthenticationFilter&lt;/span&gt;" style="rounded=0;whiteSpace=wrap;html=1;fontSize=13;" vertex="1" parent="WIyWlLk6GJQsqaUBKTNV-1">
          <mxGeometry x="830" y="610" width="230" height="50" as="geometry" />
        </mxCell>
        <mxCell id="zlRkOM_I-QWPaKwqosRQ-34" style="edgeStyle=orthogonalEdgeStyle;rounded=0;orthogonalLoop=1;jettySize=auto;html=1;exitX=1;exitY=0.5;exitDx=0;exitDy=0;entryX=0;entryY=0.5;entryDx=0;entryDy=0;fontSize=13;" edge="1" parent="WIyWlLk6GJQsqaUBKTNV-1" source="zlRkOM_I-QWPaKwqosRQ-1" target="zlRkOM_I-QWPaKwqosRQ-2">
          <mxGeometry relative="1" as="geometry" />
        </mxCell>
        <mxCell id="zlRkOM_I-QWPaKwqosRQ-1" value="LogoutFilter" style="rounded=0;whiteSpace=wrap;html=1;fontSize=13;align=center;verticalAlign=middle;fillColor=#fa6800;fontColor=#000000;strokeColor=#C73500;" vertex="1" parent="WIyWlLk6GJQsqaUBKTNV-1">
          <mxGeometry x="120" y="60" width="230" height="50" as="geometry" />
        </mxCell>
        <mxCell id="zlRkOM_I-QWPaKwqosRQ-35" style="edgeStyle=orthogonalEdgeStyle;rounded=0;orthogonalLoop=1;jettySize=auto;html=1;exitX=0.5;exitY=1;exitDx=0;exitDy=0;entryX=0.5;entryY=0;entryDx=0;entryDy=0;fontSize=13;" edge="1" parent="WIyWlLk6GJQsqaUBKTNV-1" source="zlRkOM_I-QWPaKwqosRQ-2" target="zlRkOM_I-QWPaKwqosRQ-22">
          <mxGeometry relative="1" as="geometry" />
        </mxCell>
        <mxCell id="zlRkOM_I-QWPaKwqosRQ-2" value="UsernamePasswordAuthenticationFilter" style="rounded=0;whiteSpace=wrap;html=1;fontSize=13;fillColor=#fa6800;fontColor=#000000;strokeColor=#C73500;" vertex="1" parent="WIyWlLk6GJQsqaUBKTNV-1">
          <mxGeometry x="400" y="-280" width="230" height="50" as="geometry" />
        </mxCell>
        <mxCell id="zlRkOM_I-QWPaKwqosRQ-33" style="edgeStyle=orthogonalEdgeStyle;rounded=0;orthogonalLoop=1;jettySize=auto;html=1;exitX=0.5;exitY=1;exitDx=0;exitDy=0;entryX=0.5;entryY=0;entryDx=0;entryDy=0;fontSize=13;" edge="1" parent="WIyWlLk6GJQsqaUBKTNV-1" source="zlRkOM_I-QWPaKwqosRQ-8" target="zlRkOM_I-QWPaKwqosRQ-1">
          <mxGeometry relative="1" as="geometry" />
        </mxCell>
        <mxCell id="zlRkOM_I-QWPaKwqosRQ-8" value="CsrfFilter" style="rounded=0;whiteSpace=wrap;html=1;fontSize=13;align=center;verticalAlign=middle;flipH=1;fillColor=#fa6800;fontColor=#000000;strokeColor=#C73500;" vertex="1" parent="WIyWlLk6GJQsqaUBKTNV-1">
          <mxGeometry x="120" y="-25" width="230" height="50" as="geometry" />
        </mxCell>
        <mxCell id="zlRkOM_I-QWPaKwqosRQ-32" style="edgeStyle=orthogonalEdgeStyle;rounded=0;orthogonalLoop=1;jettySize=auto;html=1;exitX=0.5;exitY=1;exitDx=0;exitDy=0;entryX=0.5;entryY=0;entryDx=0;entryDy=0;fontSize=13;" edge="1" parent="WIyWlLk6GJQsqaUBKTNV-1" source="zlRkOM_I-QWPaKwqosRQ-9" target="zlRkOM_I-QWPaKwqosRQ-8">
          <mxGeometry relative="1" as="geometry" />
        </mxCell>
        <mxCell id="zlRkOM_I-QWPaKwqosRQ-9" value="HeaderWritrFilter" style="rounded=0;whiteSpace=wrap;html=1;fontSize=13;align=center;verticalAlign=middle;flipH=1;fillColor=#fa6800;fontColor=#000000;strokeColor=#C73500;" vertex="1" parent="WIyWlLk6GJQsqaUBKTNV-1">
          <mxGeometry x="120" y="-110" width="230" height="50" as="geometry" />
        </mxCell>
        <mxCell id="zlRkOM_I-QWPaKwqosRQ-38" style="edgeStyle=orthogonalEdgeStyle;rounded=0;orthogonalLoop=1;jettySize=auto;html=1;exitX=0.5;exitY=1;exitDx=0;exitDy=0;entryX=0.5;entryY=0;entryDx=0;entryDy=0;fontSize=13;" edge="1" parent="WIyWlLk6GJQsqaUBKTNV-1" source="zlRkOM_I-QWPaKwqosRQ-13" target="zlRkOM_I-QWPaKwqosRQ-14">
          <mxGeometry relative="1" as="geometry" />
        </mxCell>
        <mxCell id="zlRkOM_I-QWPaKwqosRQ-13" value="&lt;span style=&quot;font-size: 13px; text-wrap: nowrap;&quot;&gt;BasicAuthenticationFilter&lt;/span&gt;" style="rounded=0;whiteSpace=wrap;html=1;fontSize=13;fillColor=#fa6800;fontColor=#000000;strokeColor=#C73500;" vertex="1" parent="WIyWlLk6GJQsqaUBKTNV-1">
          <mxGeometry x="400" y="-25" width="230" height="50" as="geometry" />
        </mxCell>
        <mxCell id="zlRkOM_I-QWPaKwqosRQ-40" style="edgeStyle=orthogonalEdgeStyle;rounded=0;orthogonalLoop=1;jettySize=auto;html=1;exitX=0.5;exitY=1;exitDx=0;exitDy=0;entryX=0.5;entryY=0;entryDx=0;entryDy=0;fontSize=13;" edge="1" parent="WIyWlLk6GJQsqaUBKTNV-1" source="zlRkOM_I-QWPaKwqosRQ-15" target="zlRkOM_I-QWPaKwqosRQ-16">
          <mxGeometry relative="1" as="geometry" />
        </mxCell>
        <mxCell id="zlRkOM_I-QWPaKwqosRQ-15" value="SecurityContextHolderAwareRequestFilter" style="rounded=0;whiteSpace=wrap;html=1;fontSize=13;fillColor=#fa6800;fontColor=#000000;strokeColor=#C73500;" vertex="1" parent="WIyWlLk6GJQsqaUBKTNV-1">
          <mxGeometry x="690" y="-280" width="230" height="50" as="geometry" />
        </mxCell>
        <mxCell id="zlRkOM_I-QWPaKwqosRQ-41" style="edgeStyle=orthogonalEdgeStyle;rounded=0;orthogonalLoop=1;jettySize=auto;html=1;exitX=0.5;exitY=1;exitDx=0;exitDy=0;entryX=0.5;entryY=0;entryDx=0;entryDy=0;fontSize=13;" edge="1" parent="WIyWlLk6GJQsqaUBKTNV-1" source="zlRkOM_I-QWPaKwqosRQ-16" target="zlRkOM_I-QWPaKwqosRQ-17">
          <mxGeometry relative="1" as="geometry" />
        </mxCell>
        <mxCell id="zlRkOM_I-QWPaKwqosRQ-16" value="AnonymousAuthenticationFilter" style="rounded=0;whiteSpace=wrap;html=1;fontSize=13;fillColor=#fa6800;fontColor=#000000;strokeColor=#C73500;" vertex="1" parent="WIyWlLk6GJQsqaUBKTNV-1">
          <mxGeometry x="690" y="-195" width="230" height="50" as="geometry" />
        </mxCell>
        <mxCell id="zlRkOM_I-QWPaKwqosRQ-42" style="edgeStyle=orthogonalEdgeStyle;rounded=0;orthogonalLoop=1;jettySize=auto;html=1;exitX=0.5;exitY=1;exitDx=0;exitDy=0;entryX=0.5;entryY=0;entryDx=0;entryDy=0;fontSize=13;" edge="1" parent="WIyWlLk6GJQsqaUBKTNV-1" source="zlRkOM_I-QWPaKwqosRQ-17" target="zlRkOM_I-QWPaKwqosRQ-18">
          <mxGeometry relative="1" as="geometry" />
        </mxCell>
        <mxCell id="zlRkOM_I-QWPaKwqosRQ-17" value="SessionManagementFilter" style="rounded=0;whiteSpace=wrap;html=1;fontSize=13;fillColor=#fa6800;fontColor=#000000;strokeColor=#C73500;" vertex="1" parent="WIyWlLk6GJQsqaUBKTNV-1">
          <mxGeometry x="690" y="-110" width="230" height="50" as="geometry" />
        </mxCell>
        <mxCell id="zlRkOM_I-QWPaKwqosRQ-43" style="edgeStyle=orthogonalEdgeStyle;rounded=0;orthogonalLoop=1;jettySize=auto;html=1;exitX=0.5;exitY=1;exitDx=0;exitDy=0;entryX=0.5;entryY=0;entryDx=0;entryDy=0;fontSize=13;" edge="1" parent="WIyWlLk6GJQsqaUBKTNV-1" source="zlRkOM_I-QWPaKwqosRQ-18" target="zlRkOM_I-QWPaKwqosRQ-19">
          <mxGeometry relative="1" as="geometry" />
        </mxCell>
        <mxCell id="zlRkOM_I-QWPaKwqosRQ-18" value="ExceptionTranslationFilter" style="rounded=0;whiteSpace=wrap;html=1;fontSize=13;fillColor=#fa6800;fontColor=#000000;strokeColor=#C73500;" vertex="1" parent="WIyWlLk6GJQsqaUBKTNV-1">
          <mxGeometry x="690" y="-25" width="230" height="50" as="geometry" />
        </mxCell>
        <mxCell id="zlRkOM_I-QWPaKwqosRQ-36" style="edgeStyle=orthogonalEdgeStyle;rounded=0;orthogonalLoop=1;jettySize=auto;html=1;exitX=0.5;exitY=1;exitDx=0;exitDy=0;fontSize=13;" edge="1" parent="WIyWlLk6GJQsqaUBKTNV-1" source="zlRkOM_I-QWPaKwqosRQ-22" target="zlRkOM_I-QWPaKwqosRQ-23">
          <mxGeometry relative="1" as="geometry" />
        </mxCell>
        <mxCell id="zlRkOM_I-QWPaKwqosRQ-22" value="DefaultLoginPageGeneratingFilter" style="rounded=0;whiteSpace=wrap;html=1;fontSize=13;fillColor=#fa6800;fontColor=#000000;strokeColor=#C73500;" vertex="1" parent="WIyWlLk6GJQsqaUBKTNV-1">
          <mxGeometry x="400" y="-200" width="230" height="50" as="geometry" />
        </mxCell>
        <mxCell id="zlRkOM_I-QWPaKwqosRQ-37" style="edgeStyle=orthogonalEdgeStyle;rounded=0;orthogonalLoop=1;jettySize=auto;html=1;exitX=0.5;exitY=1;exitDx=0;exitDy=0;entryX=0.5;entryY=0;entryDx=0;entryDy=0;fontSize=13;" edge="1" parent="WIyWlLk6GJQsqaUBKTNV-1" source="zlRkOM_I-QWPaKwqosRQ-23" target="zlRkOM_I-QWPaKwqosRQ-13">
          <mxGeometry relative="1" as="geometry" />
        </mxCell>
        <mxCell id="zlRkOM_I-QWPaKwqosRQ-23" value="DefaultLogoutPageGeneratingFilter" style="rounded=0;whiteSpace=wrap;html=1;fontSize=13;fillColor=#fa6800;fontColor=#000000;strokeColor=#C73500;" vertex="1" parent="WIyWlLk6GJQsqaUBKTNV-1">
          <mxGeometry x="400" y="-110" width="230" height="50" as="geometry" />
        </mxCell>
      </root>
    </mxGraphModel>
  </diagram>
</mxfile>
